<?xml version="1.0" standalone="no"?>
<!DOCTYPE svg PUBLIC "-//W3C//DTD SVG 20010904//EN"
 "http://www.w3.org/TR/2001/REC-SVG-20010904/DTD/svg10.dtd">
<svg version="1.0" xmlns="http://www.w3.org/2000/svg"
 width="2632.000000pt" height="1576.000000pt" viewBox="0 0 2632.000000 1576.000000"
 preserveAspectRatio="xMidYMid meet">

<g transform="translate(0.000000,1576.000000) scale(0.100000,-0.100000)"
fill="#000000" stroke="none">
<path d="M2349 13497 c-24 -13 -57 -43 -74 -66 l-30 -43 -3 -5486 c-2 -3869 0
-5498 8 -5524 14 -50 56 -97 105 -119 38 -18 96 -19 1195 -19 1093 0 1163 -1
1302 -20 337 -45 331 -45 8308 -45 7977 0 7971 0 8308 45 139 19 209 20 1302
20 1099 0 1157 1 1195 19 49 22 91 69 105 119 8 26 10 1655 8 5524 l-3 5486
-30 43 c-16 23 -50 53 -74 66 l-44 23 -10767 0 -10767 0 -44 -23z m1637 -635
c154 -79 188 -276 68 -396 -97 -96 -251 -96 -348 0 -131 132 -79 343 101 410
48 18 129 12 179 -14z m801 -4 c83 -38 135 -123 135 -218 0 -137 -104 -242
-240 -242 -139 0 -244 104 -244 240 0 65 12 103 48 150 71 92 193 121 301 70z
m-1612 -16 c79 -38 127 -115 127 -202 0 -126 -96 -222 -222 -222 -196 0 -296
231 -161 375 65 70 172 91 256 49z m-9 -1579 c-4 -10 -51 -111 -104 -225 -83
-178 -100 -208 -119 -208 -22 0 -21 3 21 93 142 307 169 357 189 357 14 0 17
-5 13 -17z m319 -35 c-105 -237 -186 -393 -205 -396 -11 -2 -20 -1 -20 3 0 6
137 300 181 388 21 40 35 57 49 57 18 0 18 -2 -5 -52z m2215 -770 l0 -122 63
62 c48 48 69 62 92 62 29 0 29 0 -28 -58 l-58 -58 66 -87 c36 -47 65 -89 65
-92 0 -3 -12 -5 -27 -5 -23 0 -37 13 -81 75 -30 41 -57 75 -61 75 -20 0 -31
-30 -31 -87 l0 -63 -30 0 -30 0 0 210 0 210 30 0 30 0 0 -122z m1420 92 c0
-25 -4 -30 -25 -30 -21 0 -25 5 -25 30 0 25 4 30 25 30 21 0 25 -5 25 -30z
m2700 0 c0 -25 -4 -30 -25 -30 -21 0 -25 5 -25 30 0 25 4 30 25 30 21 0 25 -5
25 -30z m1100 -180 c0 -203 -1 -210 -20 -210 -12 0 -20 7 -20 17 0 15 -1 15
-19 -1 -46 -42 -136 -25 -164 32 -38 74 -25 185 25 227 35 29 107 35 128 10
23 -28 30 -15 30 60 0 68 2 75 20 75 19 0 20 -7 20 -210z m258 203 c-39 -76
-68 -177 -68 -238 0 -54 25 -157 50 -205 l20 -40 -23 0 c-36 0 -87 115 -94
213 -9 115 49 277 98 277 11 0 19 -3 17 -7z m1264 -115 l3 -123 66 63 c47 44
73 62 93 62 25 0 23 -3 -34 -57 l-60 -58 70 -92 c70 -93 70 -93 42 -93 -25 0
-37 11 -83 75 -29 41 -55 75 -57 75 -2 0 -12 -5 -23 -10 -16 -9 -19 -22 -19
-75 0 -63 -1 -65 -25 -65 l-25 0 0 210 0 210 25 0 24 0 3 -122z m1758 92 c0
-25 -4 -30 -25 -30 -21 0 -25 5 -25 30 0 25 4 30 25 30 21 0 25 -5 25 -30z
m699 -43 c28 -55 35 -83 39 -146 7 -123 -45 -271 -95 -271 l-23 0 19 38 c66
129 66 284 0 413 l-20 41 23 -4 c17 -2 32 -20 57 -71z m-10443 -47 c47 0 54
-2 54 -20 0 -18 -7 -20 -55 -20 l-55 0 0 -98 c0 -63 4 -102 12 -110 7 -7 31
-12 55 -12 36 0 43 -3 43 -20 0 -17 -7 -20 -39 -20 -61 0 -98 17 -110 52 -6
17 -11 71 -11 119 l0 89 -40 0 c-33 0 -40 3 -40 20 0 17 7 20 40 20 40 0 40 0
40 38 0 31 5 41 23 49 21 10 22 8 25 -38 l3 -49 55 0z m7044 25 c0 -68 -2 -75
-20 -75 -18 0 -20 7 -20 75 0 68 2 75 20 75 18 0 20 -7 20 -75z m3040 0 c0
-68 -2 -75 -20 -75 -18 0 -20 7 -20 75 0 68 2 75 20 75 18 0 20 -7 20 -75z
m-11399 -35 c10 -6 19 -19 19 -29 0 -17 -3 -18 -38 -6 -76 27 -132 -10 -140
-93 -5 -54 15 -104 47 -122 26 -13 87 -13 112 1 18 9 20 8 17 -13 -7 -48 -121
-50 -176 -3 -35 29 -56 101 -47 157 7 42 46 95 79 108 30 12 104 12 127 0z
m327 -15 c52 -43 64 -152 26 -227 -30 -58 -116 -75 -175 -35 -77 52 -79 206
-4 265 40 32 114 30 153 -3z m188 1 l6 -24 23 24 c16 16 36 24 59 24 81 0 96
-28 96 -185 0 -108 -1 -115 -20 -115 -19 0 -20 7 -20 103 0 112 -12 150 -49
155 -72 11 -91 -22 -91 -158 0 -100 0 -100 -25 -100 l-25 0 0 150 c0 143 1
150 20 150 12 0 22 -9 26 -24z m482 18 c14 -4 22 -14 22 -29 0 -22 -1 -22 -41
-8 -54 18 -97 9 -112 -24 -10 -22 -8 -28 10 -43 12 -10 43 -21 68 -25 60 -8
85 -34 85 -84 0 -31 -6 -44 -26 -60 -34 -27 -85 -36 -137 -25 -34 7 -43 14
-45 33 -3 20 -1 22 15 16 10 -5 41 -10 68 -13 42 -3 54 0 69 17 16 17 17 25 8
45 -8 19 -24 27 -66 37 -31 7 -65 21 -76 31 -36 33 -22 110 23 128 26 10 102
12 135 4z m1006 -5 c39 -18 54 -63 58 -181 3 -107 3 -108 -19 -108 -14 0 -23
6 -23 15 0 19 -3 19 -42 -5 -39 -24 -88 -26 -127 -5 -33 17 -41 33 -41 84 0
69 47 101 153 101 52 0 58 10 31 49 -14 20 -23 22 -73 19 -31 -2 -64 -8 -73
-12 -15 -7 -18 -3 -18 17 0 16 7 27 18 30 35 9 132 7 156 -4z m350 5 c9 -3 16
-17 16 -30 0 -21 -3 -23 -26 -14 -31 12 -94 13 -112 1 -8 -5 -12 -21 -10 -37
3 -26 9 -30 63 -44 74 -20 84 -25 96 -57 14 -37 -6 -90 -41 -108 -30 -15 -106
-18 -150 -6 -16 4 -26 15 -28 30 -3 21 -1 23 23 17 91 -23 127 -19 146 15 15
30 -10 53 -82 73 -67 19 -81 33 -81 83 0 56 36 83 112 83 32 0 65 -3 74 -6z
m665 -9 c39 -20 49 -53 54 -177 4 -108 4 -108 -20 -108 -16 0 -23 6 -23 20 0
18 -2 18 -36 -5 -50 -34 -103 -33 -143 1 -26 21 -31 33 -31 69 0 72 49 105
156 105 36 0 44 3 44 18 0 37 -35 55 -92 50 -29 -3 -61 -9 -70 -13 -15 -6 -18
-2 -18 18 0 29 13 33 98 36 29 0 65 -5 81 -14z m171 3 c0 -9 3 -9 12 0 7 7 26
12 43 12 17 0 36 -5 43 -12 9 -9 15 -9 24 0 7 7 27 12 45 12 52 0 63 -28 70
-174 l6 -126 -26 0 -27 0 0 114 c0 131 -4 146 -35 146 -31 0 -35 -15 -35 -146
l0 -114 -25 0 -24 0 -3 128 c-3 125 -3 127 -27 130 -13 2 -28 -2 -32 -10 -5
-7 -9 -66 -9 -130 0 -111 -1 -118 -20 -118 -19 0 -20 7 -20 150 0 143 1 150
20 150 11 0 20 -5 20 -12z m521 -17 c27 -28 29 -34 29 -113 0 -46 4 -100 9
-120 8 -36 8 -38 -16 -38 -17 0 -27 7 -30 21 -6 20 -6 20 -29 -2 -15 -14 -41
-24 -73 -27 -46 -4 -53 -2 -81 26 -21 22 -30 40 -30 64 0 67 57 108 150 108
43 0 50 3 50 19 0 38 -29 54 -89 48 -31 -2 -64 -8 -73 -12 -14 -5 -18 -2 -18
14 0 28 30 40 108 40 57 1 66 -2 93 -28z m269 -85 c0 -132 7 -146 71 -146 32
0 39 -3 39 -20 0 -17 -7 -20 -49 -20 -38 0 -56 6 -78 24 -27 23 -28 28 -31
130 l-4 106 -34 0 c-27 0 -34 4 -34 20 0 18 7 20 60 20 l60 0 0 -114z m1290
88 l0 -26 31 26 c48 41 139 35 139 -9 0 -21 -2 -22 -39 -12 -53 14 -99 -5
-117 -49 -8 -20 -14 -69 -14 -119 0 -84 0 -85 -25 -85 l-25 0 0 150 0 150 25
0 c20 0 25 -5 25 -26z m464 1 c31 -29 46 -64 46 -111 l0 -34 -110 0 c-60 0
-110 -2 -110 -5 0 -3 7 -21 15 -40 22 -54 89 -70 160 -41 34 15 35 14 35 -9 0
-28 -41 -45 -109 -45 -92 0 -146 57 -146 155 1 102 48 154 141 155 41 0 57 -5
78 -25z m296 10 c7 -8 16 -15 21 -15 5 0 9 7 9 15 0 8 9 15 20 15 19 0 20 -7
20 -210 l0 -210 -25 0 c-24 0 -25 2 -25 71 l0 70 -22 -15 c-12 -9 -40 -16 -61
-16 -79 0 -130 94 -108 199 15 77 50 111 112 111 29 0 51 -6 59 -15z m230
-105 c0 -116 1 -120 25 -136 31 -20 75 -8 92 27 8 14 13 65 13 127 l0 102 25
0 25 0 0 -150 0 -150 -25 0 c-19 0 -25 5 -26 23 0 12 -3 16 -6 9 -6 -16 -56
-42 -82 -42 -33 0 -68 21 -80 47 -6 13 -11 77 -11 143 l0 120 25 0 25 0 0
-120z m420 6 c0 -132 7 -146 71 -146 32 0 39 -3 39 -20 0 -17 -7 -20 -49 -20
-38 0 -56 6 -78 24 -27 23 -28 28 -31 130 l-4 106 -34 0 c-27 0 -34 4 -34 20
0 18 7 20 60 20 l60 0 0 -114z m280 88 l0 -27 26 27 c21 20 37 26 70 26 58 0
74 -8 74 -36 0 -28 -1 -28 -34 -13 -40 19 -94 3 -116 -34 -16 -26 -20 -50 -20
-124 0 -92 0 -93 -25 -93 l-25 0 0 150 0 150 25 0 c20 0 25 -5 25 -26z m460
-1 c19 -17 35 -44 40 -68 18 -78 23 -75 -100 -75 -105 0 -110 -1 -110 -21 0
-11 14 -34 30 -51 28 -28 35 -30 78 -25 26 3 58 9 70 13 21 6 23 4 20 -17 -3
-26 -29 -36 -98 -38 -95 -2 -150 57 -150 160 0 96 50 149 142 149 38 0 54 -6
78 -27z m1329 12 c39 -20 49 -53 54 -177 3 -98 2 -108 -14 -108 -10 0 -20 9
-24 19 -6 19 -7 19 -43 -6 -66 -45 -154 -18 -167 51 -8 40 8 81 38 101 13 8
54 18 91 22 60 5 66 8 66 28 0 13 -7 28 -15 35 -18 15 -107 15 -134 1 -28 -16
-33 -14 -29 11 2 14 13 25 28 29 44 12 120 9 149 -6z m339 9 c13 -4 22 -14 22
-25 0 -16 -5 -18 -27 -12 -73 18 -123 1 -123 -42 0 -24 15 -32 98 -54 54 -15
77 -48 68 -96 -4 -21 -17 -41 -31 -51 -56 -36 -185 -24 -185 17 0 16 4 19 18
14 33 -14 109 -17 131 -6 28 16 28 56 -1 75 -13 7 -40 17 -62 21 -46 8 -86 45
-86 80 0 16 12 38 29 56 25 24 38 29 78 29 26 0 58 -3 71 -6z m672 -9 c42 -22
50 -43 50 -132 0 -43 4 -95 9 -115 8 -35 7 -38 -14 -38 -14 0 -25 7 -28 20 -5
20 -6 20 -43 -5 -42 -28 -82 -32 -123 -10 -33 17 -41 33 -41 86 0 64 55 99
158 99 46 0 52 11 27 47 -19 27 -58 34 -117 18 -45 -11 -48 -11 -48 7 0 10 10
23 23 28 35 14 115 11 147 -5z m173 3 c4 -10 7 -10 18 0 18 17 64 15 79 -3 11
-13 15 -13 33 0 28 20 71 19 88 -2 10 -11 15 -55 17 -150 4 -130 3 -133 -17
-133 -20 0 -21 5 -21 119 0 97 -3 123 -16 136 -41 41 -64 -11 -64 -147 0 -101
-1 -108 -20 -108 -19 0 -20 7 -20 125 0 107 -2 125 -17 134 -11 6 -24 6 -35 0
-16 -9 -18 -25 -18 -134 0 -118 -1 -125 -20 -125 -19 0 -20 7 -20 150 0 123 3
150 14 150 8 0 16 -6 19 -12z m837 -3 c42 -22 50 -43 50 -132 0 -43 4 -95 9
-115 8 -35 7 -38 -14 -38 -14 0 -25 7 -28 20 -5 20 -6 20 -43 -5 -42 -28 -82
-32 -123 -10 -33 17 -41 33 -41 86 0 64 55 99 158 99 46 0 52 11 27 47 -19 27
-58 34 -117 18 -45 -11 -48 -11 -48 7 0 10 10 23 23 28 35 14 115 11 147 -5z
m290 -99 c0 -132 7 -146 71 -146 33 0 39 -3 39 -21 0 -20 -4 -21 -57 -17 -83
7 -93 23 -93 154 l0 104 -35 0 c-28 0 -35 4 -35 20 0 18 7 20 55 20 l55 0 0
-114z m-6282 47 c3 -23 3 -23 -142 -23 l-146 0 0 25 0 26 143 -3 c139 -3 142
-4 145 -25z m5702 -73 c0 -19 -7 -20 -110 -20 -103 0 -110 1 -110 20 0 19 7
20 110 20 103 0 110 -1 110 -20z m-5702 -37 c3 -23 3 -23 -142 -23 l-146 0 0
25 0 26 143 -3 c139 -3 142 -4 145 -25z m4332 -1223 c0 -16 -7 -20 -30 -20
-39 0 -50 -23 -50 -104 0 -53 -4 -70 -20 -86 l-20 -20 20 -20 c16 -16 20 -33
20 -91 0 -86 11 -109 50 -109 24 0 30 -4 30 -21 0 -20 -4 -21 -46 -16 -68 7
-77 22 -84 127 -6 100 -12 110 -67 110 -26 0 -33 4 -33 20 0 16 7 20 34 20 52
0 66 21 66 95 0 105 20 133 98 134 26 1 32 -3 32 -19z m-7060 -20 c0 -17 -7
-20 -45 -20 -47 0 -65 -16 -65 -59 0 -19 6 -21 55 -21 48 0 55 -2 55 -20 0
-18 -7 -20 -55 -20 l-55 0 0 -130 c0 -123 -1 -130 -20 -130 -19 0 -20 7 -20
130 l0 130 -40 0 c-33 0 -40 3 -40 20 0 17 7 20 40 20 39 0 40 1 40 33 0 61
28 83 113 86 31 1 37 -2 37 -19z m1590 -10 c0 -25 -4 -30 -25 -30 -21 0 -25 5
-25 30 0 25 4 30 25 30 21 0 25 -5 25 -30z m2365 0 c0 -20 -6 -26 -27 -28 -25
-3 -28 0 -28 28 0 28 3 31 28 28 21 -2 27 -8 27 -28z m997 -143 c3 -197 7
-207 69 -207 32 0 39 -3 39 -20 0 -17 -7 -20 -50 -20 -41 0 -56 5 -75 25 -25
24 -25 27 -25 189 l0 165 -42 3 c-31 2 -44 8 -46 21 -3 15 5 17 61 17 l65 0 4
-173z m1036 166 c-39 -76 -68 -177 -68 -238 0 -54 25 -157 50 -205 l20 -40
-23 0 c-36 0 -87 115 -94 213 -9 115 49 277 98 277 11 0 19 -3 17 -7z m336
-35 c51 -89 69 -205 45 -293 -6 -22 -22 -66 -36 -97 -21 -47 -30 -58 -49 -58
l-23 0 23 53 c64 143 59 243 -21 425 -3 7 3 12 16 12 13 0 28 -14 45 -42z
m-2702 10 c75 -22 114 -102 105 -215 -10 -126 -60 -173 -184 -173 l-73 0 0
200 0 200 56 0 c31 0 74 -5 96 -12z m-2392 -43 l0 -45 55 0 c48 0 55 -2 55
-20 0 -18 -7 -20 -55 -20 l-55 0 0 -91 c0 -115 7 -129 65 -129 39 0 45 -3 45
-21 0 -20 -4 -21 -56 -16 -87 9 -94 20 -94 149 l0 108 -45 0 c-38 0 -45 3 -45
20 0 17 7 20 45 20 l45 0 0 38 c0 41 6 52 27 52 9 0 13 -14 13 -45z m-3300
-60 c42 -22 50 -43 50 -132 0 -43 4 -95 9 -115 8 -35 7 -38 -14 -38 -14 0 -25
7 -28 20 -5 20 -6 20 -43 -5 -20 -14 -50 -25 -66 -25 -36 0 -83 24 -92 45 -8
21 -8 79 0 100 10 25 59 45 129 52 70 6 78 15 46 54 -15 18 -27 22 -69 21 -28
0 -60 -6 -72 -12 -17 -9 -20 -8 -20 10 0 12 9 24 23 30 35 14 115 11 147 -5z
m338 9 c13 -4 22 -14 22 -26 0 -13 -5 -18 -14 -15 -71 28 -131 10 -131 -38 0
-28 4 -30 65 -46 66 -18 100 -45 100 -79 0 -79 -80 -118 -182 -89 -28 7 -38
15 -38 31 0 15 4 18 18 13 33 -14 109 -17 131 -6 28 16 28 56 -1 75 -13 8 -41
18 -62 22 -82 15 -110 81 -57 135 25 24 38 29 78 29 26 0 58 -3 71 -6z m222
-109 c24 -63 46 -115 50 -115 4 0 26 52 50 115 37 102 45 115 66 115 20 0 22
-3 15 -22 -5 -13 -36 -93 -69 -180 -34 -86 -66 -165 -73 -176 -26 -42 -109
-59 -109 -22 0 14 7 20 23 20 30 0 41 9 60 46 16 31 15 34 -43 180 -33 81 -60
149 -60 151 0 2 11 3 23 3 21 0 29 -13 67 -115z m310 95 c0 -11 3 -20 6 -20 3
0 17 9 31 20 27 21 82 26 113 10 29 -15 40 -65 40 -181 l0 -109 -25 0 -25 0 0
111 c0 133 -7 149 -60 149 -60 0 -70 -22 -70 -152 l0 -108 -25 0 -25 0 0 150
c0 143 1 150 20 150 13 0 20 -7 20 -20z m501 10 c10 -6 19 -19 19 -29 0 -17
-3 -18 -40 -5 -21 8 -47 11 -57 8 -66 -21 -83 -47 -83 -125 0 -42 5 -55 29
-80 32 -31 76 -38 125 -19 23 8 26 7 26 -10 0 -44 -115 -52 -169 -13 -84 62
-78 223 10 266 38 19 111 22 140 7z m859 -107 c0 -94 3 -120 17 -135 22 -24
62 -23 90 4 21 20 23 29 23 135 l0 113 25 0 25 0 0 -150 c0 -143 -1 -150 -20
-150 -13 0 -20 7 -20 20 0 23 -15 27 -23 6 -9 -23 -77 -40 -110 -27 -43 17
-57 63 -57 191 l0 110 25 0 25 0 0 -117z m330 91 l0 -26 31 27 c43 36 103 32
133 -8 18 -24 22 -46 25 -148 l3 -119 -26 0 -26 0 0 114 c0 129 -8 146 -64
146 -58 0 -70 -26 -74 -151 -4 -99 -6 -109 -23 -109 -18 0 -19 10 -19 150 0
143 1 150 20 150 15 0 20 -7 20 -26z m494 16 c16 -6 26 -17 26 -29 0 -17 -3
-18 -39 -5 -47 16 -103 4 -126 -29 -9 -13 -15 -43 -15 -78 0 -48 5 -63 27 -89
24 -29 31 -31 72 -28 25 3 54 8 64 12 13 6 17 4 17 -12 0 -40 -100 -55 -159
-24 -91 49 -97 218 -9 272 36 22 100 26 142 10z m606 -101 c0 -136 6 -149 65
-149 39 0 45 -3 45 -21 0 -20 -4 -21 -57 -17 -83 7 -93 23 -93 154 l0 104 -35
0 c-28 0 -35 4 -35 20 0 18 7 20 55 20 l55 0 0 -111z m398 86 c52 -43 64 -152
26 -227 -30 -58 -116 -75 -175 -35 -77 52 -79 206 -4 265 40 32 114 30 153 -3z
m188 1 l6 -24 23 24 c16 16 36 24 59 24 81 0 96 -28 96 -185 0 -108 -1 -115
-20 -115 -19 0 -20 7 -20 103 0 112 -12 150 -49 155 -72 11 -91 -22 -91 -158
0 -100 0 -100 -25 -100 l-25 0 0 150 c0 143 1 150 20 150 12 0 22 -9 26 -24z
m650 13 c4 -8 9 -8 17 0 17 17 75 13 85 -5 8 -14 10 -14 21 0 8 9 28 16 47 16
55 0 64 -24 64 -172 0 -121 -1 -128 -20 -128 -19 0 -20 7 -20 104 0 123 -10
159 -43 154 -21 -3 -22 -7 -25 -130 l-3 -128 -24 0 -25 0 0 114 c0 131 -4 146
-35 146 -31 0 -35 -15 -35 -146 l0 -114 -25 0 -25 0 0 150 c0 142 1 150 19
150 11 0 23 -5 27 -11z m388 -101 c23 -58 44 -109 47 -112 3 -4 25 46 49 109
38 105 44 115 67 115 31 0 34 14 -51 -205 -72 -186 -93 -215 -152 -215 -27 0
-34 4 -34 20 0 14 7 20 23 20 30 0 41 9 60 46 16 31 15 34 -43 180 -33 81 -60
150 -60 152 0 2 12 2 26 0 24 -3 31 -14 68 -110z m746 -6 c0 -78 4 -122 12
-130 7 -7 29 -12 50 -12 31 0 38 -4 38 -20 0 -17 -7 -20 -50 -20 -41 0 -56 5
-75 25 -23 23 -25 31 -25 130 l0 105 -35 0 c-28 0 -35 4 -35 20 0 18 7 20 60
20 l60 0 0 -118z m391 108 c25 -14 27 -56 2 -44 -10 4 -42 8 -72 9 -41 0 -56
-4 -65 -17 -18 -29 5 -52 65 -66 30 -8 64 -23 77 -35 30 -28 29 -78 -1 -113
-20 -23 -34 -28 -83 -32 -76 -5 -114 9 -114 42 0 25 1 25 35 10 67 -27 135 -9
135 36 0 25 -19 37 -75 50 -28 6 -60 21 -72 32 -32 30 -31 81 2 113 20 21 34
25 85 25 34 0 70 -5 81 -10z m189 -6 c0 -14 2 -14 22 0 26 18 90 21 120 5 48
-26 74 -152 44 -223 -18 -42 -61 -76 -98 -76 -31 0 -68 16 -80 34 -4 6 -8 -24
-8 -66 0 -76 0 -78 -25 -78 l-25 0 0 210 0 210 25 0 c16 0 25 -6 25 -16z m831
-13 c27 -28 29 -34 29 -113 0 -46 4 -100 9 -120 8 -36 8 -38 -16 -38 -17 0
-27 7 -30 21 -6 20 -6 20 -29 -2 -15 -14 -41 -24 -73 -27 -46 -4 -53 -2 -81
26 -21 22 -30 40 -30 64 0 67 57 108 150 108 43 0 50 3 50 19 0 38 -29 54 -89
48 -31 -2 -64 -8 -73 -12 -14 -5 -18 -2 -18 14 0 28 30 40 108 40 57 1 66 -2
93 -28z m203 -83 c23 -58 44 -109 47 -112 3 -4 25 46 49 109 38 105 44 115 67
115 31 0 34 14 -51 -205 -72 -186 -93 -215 -152 -215 -27 0 -34 4 -34 20 0 14
7 20 23 20 30 0 41 9 60 46 16 31 15 34 -43 180 -33 81 -60 150 -60 152 0 2
12 2 26 0 24 -3 31 -14 68 -110z m11274 -485 c-2 -12 -15 -20 -38 -23 -40 -6
-47 -23 -49 -116 -1 -47 -5 -65 -21 -79 -19 -18 -19 -19 -1 -31 14 -10 19 -31
23 -99 3 -47 8 -89 11 -92 3 -3 21 -8 39 -12 19 -4 34 -14 36 -24 3 -13 -4
-17 -32 -17 -81 0 -106 36 -106 157 0 68 -12 83 -64 83 -19 0 -26 5 -26 20 0
16 7 20 34 20 18 0 38 6 43 13 6 6 13 46 16 87 3 41 9 83 13 93 9 23 38 36 87
36 31 1 38 -2 35 -16z m-18298 -174 c0 -98 4 -178 10 -190 8 -14 21 -19 55
-19 38 0 45 -3 45 -20 0 -17 -7 -20 -46 -20 -98 0 -114 33 -114 235 l0 145
-40 0 c-33 0 -40 3 -40 20 0 18 7 20 65 20 l65 0 0 -171z m3380 141 c0 -25 -4
-30 -25 -30 -21 0 -25 5 -25 30 0 25 4 30 25 30 21 0 25 -5 25 -30z m4720 0
c0 -25 -4 -30 -25 -30 -21 0 -25 5 -25 30 0 25 4 30 25 30 21 0 25 -5 25 -30z
m1010 -10 c-64 -126 -65 -278 -2 -407 l20 -43 -22 0 c-15 0 -29 12 -43 38 -66
120 -71 255 -13 380 27 60 37 72 57 72 l23 0 -20 -40z m430 20 c0 -16 -7 -20
-38 -20 -45 0 -62 -14 -62 -52 0 -27 2 -28 50 -28 43 0 50 -3 50 -20 0 -17 -7
-20 -50 -20 l-50 0 0 -130 0 -130 -25 0 -25 0 0 130 0 130 -40 0 c-33 0 -40 3
-40 20 0 17 7 20 40 20 35 0 40 3 40 23 1 58 46 97 113 97 30 0 37 -4 37 -20z
m1595 -10 c0 -18 -6 -26 -22 -28 -20 -3 -23 1 -23 28 0 27 3 31 23 28 16 -2
22 -10 22 -28z m1025 26 c0 -2 -11 -28 -25 -57 -38 -83 -49 -180 -31 -266 8
-39 24 -90 35 -114 26 -53 26 -51 -1 -47 -29 4 -75 95 -90 178 -14 76 -1 157
41 246 23 48 35 64 50 64 12 0 21 -2 21 -4z m1662 -169 c3 -197 7 -207 69
-207 32 0 39 -3 39 -20 0 -17 -7 -20 -50 -20 -41 0 -56 5 -75 25 -25 24 -25
27 -25 189 l0 165 -42 3 c-31 2 -44 8 -46 21 -3 15 5 17 61 17 l65 0 4 -173z
m2408 143 c0 -25 -4 -30 -25 -30 -21 0 -25 5 -25 30 0 25 4 30 25 30 21 0 25
-5 25 -30z m1324 -12 c51 -89 69 -205 45 -293 -6 -22 -22 -66 -36 -97 -21 -47
-30 -58 -49 -58 l-23 0 23 53 c64 143 59 243 -21 425 -3 7 3 12 16 12 13 0 28
-14 45 -42z m-16838 -78 c47 0 54 -2 54 -20 0 -18 -7 -20 -55 -20 l-55 0 0
-98 c0 -63 4 -102 12 -110 7 -7 31 -12 55 -12 36 0 43 -3 43 -20 0 -17 -7 -20
-39 -20 -61 0 -98 17 -110 52 -6 17 -11 71 -11 119 l0 89 -40 0 c-33 0 -40 3
-40 20 0 17 7 20 40 20 40 0 40 0 40 38 0 31 5 41 23 49 21 10 22 8 25 -38 l3
-49 55 0z m1386 76 c40 -26 56 -86 37 -138 -18 -54 -63 -78 -141 -78 l-58 0 0
-80 c0 -79 0 -80 -25 -80 l-25 0 0 201 0 201 93 -4 c67 -3 99 -9 119 -22z
m4703 10 c38 -16 65 -60 65 -106 0 -76 -55 -120 -150 -120 l-50 0 0 -80 0 -80
-30 0 -30 0 0 200 0 200 80 0 c47 0 95 -6 115 -14z m10385 -42 l0 -44 55 0
c48 0 55 -2 55 -20 0 -18 -7 -20 -55 -20 l-55 0 0 -98 c0 -63 4 -102 12 -110
7 -7 31 -12 55 -12 36 0 43 -3 43 -20 0 -18 -7 -20 -54 -20 -39 0 -60 6 -80
21 -25 20 -26 24 -26 130 l0 109 -45 0 c-38 0 -45 3 -45 20 0 17 7 20 45 20
l45 0 0 40 c0 27 5 42 17 49 26 14 33 5 33 -45z m-6420 1 l0 -45 60 0 c53 0
60 -2 60 -20 0 -18 -7 -20 -61 -20 l-61 0 4 -94 c5 -112 13 -126 74 -126 37 0
44 -3 44 -20 0 -42 -134 -18 -151 27 -5 13 -9 67 -9 119 l0 94 -40 0 c-33 0
-40 3 -40 20 0 17 7 20 40 20 40 0 40 0 40 39 0 35 8 48 33 50 4 1 7 -19 7
-44z m-10360 -72 c19 -17 35 -44 40 -68 18 -78 23 -75 -100 -75 -105 0 -110
-1 -110 -21 0 -11 14 -34 30 -51 28 -28 35 -30 83 -26 29 3 60 9 70 13 13 5
17 2 17 -14 0 -41 -129 -53 -185 -17 -43 28 -60 65 -60 131 1 101 50 154 142
155 33 0 50 -7 73 -27z m830 15 c0 -9 3 -9 12 0 17 17 73 15 88 -3 11 -13 14
-13 27 1 10 9 29 14 52 12 31 -3 38 -8 48 -38 7 -19 12 -86 12 -147 l1 -113
-25 0 -24 0 -3 128 c-3 125 -3 127 -27 130 -13 2 -28 -2 -32 -10 -5 -7 -9 -66
-9 -130 l0 -118 -25 0 -24 0 -3 128 c-3 123 -4 127 -25 130 -33 5 -43 -31 -43
-154 0 -97 -1 -104 -20 -104 -19 0 -20 7 -20 150 0 143 1 150 20 150 11 0 20
-5 20 -12z m391 -103 c23 -64 46 -112 49 -108 4 4 24 53 45 108 41 112 45 118
73 113 19 -3 15 -16 -54 -193 -44 -115 -82 -197 -95 -207 -12 -10 -36 -18 -55
-18 -27 0 -34 4 -34 19 0 14 8 21 28 23 19 2 32 13 46 39 l19 35 -56 145 c-32
79 -57 148 -57 152 0 4 11 7 24 7 21 0 28 -12 67 -115z m679 89 l0 -26 31 26
c48 41 139 35 139 -9 0 -21 -2 -22 -40 -12 -32 9 -46 8 -74 -6 -43 -20 -56
-59 -56 -169 0 -76 0 -78 -25 -78 l-25 0 0 150 0 150 25 0 c20 0 25 -5 25 -26z
m458 1 c53 -44 65 -152 26 -227 -40 -78 -178 -76 -219 2 -9 17 -15 56 -15 95
0 110 37 155 126 155 41 0 59 -5 82 -25z m162 13 c0 -9 3 -9 12 0 7 7 26 12
43 12 17 0 36 -5 43 -12 9 -9 15 -9 24 0 7 7 27 12 45 12 52 0 63 -28 70 -174
l6 -126 -26 0 -27 0 0 114 c0 131 -4 146 -35 146 -31 0 -35 -15 -35 -146 l0
-114 -25 0 -24 0 -3 128 c-3 125 -3 127 -27 130 -13 2 -28 -2 -32 -10 -5 -7
-9 -66 -9 -130 0 -111 -1 -118 -20 -118 -19 0 -20 7 -20 150 0 143 1 150 20
150 11 0 20 -5 20 -12z m450 -102 c0 -132 7 -146 71 -146 32 0 39 -3 39 -20 0
-17 -7 -20 -49 -20 -38 0 -56 6 -78 24 -27 23 -28 28 -31 130 l-4 106 -34 0
c-27 0 -34 4 -34 20 0 18 7 20 60 20 l60 0 0 -114z m394 108 c9 -3 16 -17 16
-30 0 -21 -3 -23 -19 -14 -27 14 -104 13 -119 -2 -7 -7 -12 -22 -12 -35 0 -18
8 -25 43 -34 23 -6 53 -14 66 -18 69 -20 80 -114 18 -151 -32 -20 -88 -25
-146 -14 -25 5 -31 12 -31 31 0 22 3 24 23 19 12 -4 40 -10 62 -13 77 -10 116
60 47 85 -15 5 -46 15 -69 21 -24 7 -47 20 -53 31 -18 33 -12 79 15 105 20 21
34 25 84 25 33 0 66 -3 75 -6z m335 -9 c31 -16 61 -77 61 -125 l0 -30 -111 0
-111 0 6 -27 c16 -65 80 -88 165 -58 41 14 41 14 41 -9 0 -29 -40 -46 -107
-46 -61 0 -106 23 -131 69 -42 74 -18 191 46 225 35 20 105 20 141 1z m1201
-5 c0 -11 3 -20 6 -20 3 0 17 9 31 20 27 21 82 26 113 10 29 -15 40 -65 40
-181 l0 -109 -25 0 -25 0 0 111 c0 133 -7 149 -60 149 -60 0 -70 -22 -70 -152
l0 -108 -25 0 -25 0 0 150 c0 143 1 150 20 150 13 0 20 -7 20 -20z m488 4 c32
-22 52 -66 52 -114 l0 -40 -105 0 -105 0 0 -25 c0 -14 12 -37 26 -52 23 -23
31 -25 82 -21 31 3 65 9 75 13 13 5 17 2 17 -14 0 -43 -135 -53 -189 -14 -82
60 -78 222 7 267 36 20 112 20 140 0z m162 -91 c12 -60 26 -114 29 -121 5 -8
16 17 30 62 17 59 26 76 40 76 14 0 23 -17 40 -76 12 -42 24 -74 26 -72 2 2
13 46 25 98 11 52 22 105 25 118 6 23 45 32 45 10 -1 -7 -15 -74 -33 -148 -31
-127 -34 -135 -56 -135 -21 0 -27 8 -44 70 -22 83 -32 96 -41 58 -28 -113 -37
-133 -62 -133 -13 0 -24 4 -24 9 0 5 -15 72 -34 150 l-33 141 22 0 c20 0 24
-9 45 -107z m1070 81 l0 -26 31 27 c27 22 40 25 83 23 47 -3 51 -5 54 -31 3
-25 2 -26 -23 -17 -45 17 -75 12 -106 -19 -28 -29 -29 -32 -29 -130 l0 -101
-25 0 -25 0 0 150 c0 143 1 150 20 150 15 0 20 -7 20 -26z m458 1 c52 -43 64
-152 26 -227 -41 -80 -185 -75 -220 7 -18 45 -18 148 1 185 23 44 53 60 111
60 41 0 59 -5 82 -25z m162 13 c0 -9 3 -9 12 0 7 7 26 12 43 12 17 0 36 -5 43
-12 9 -9 15 -9 24 0 7 7 27 12 44 12 55 0 64 -25 64 -172 0 -121 -1 -128 -20
-128 -19 0 -20 7 -20 114 0 131 -4 146 -35 146 -31 0 -35 -15 -35 -146 l0
-114 -25 0 -24 0 -3 128 c-3 125 -3 127 -27 130 -13 2 -28 -2 -32 -10 -5 -7
-9 -66 -9 -130 0 -111 -1 -118 -20 -118 -19 0 -20 7 -20 150 0 143 1 150 20
150 11 0 20 -5 20 -12z m450 -96 c0 -130 10 -152 71 -152 32 0 39 -3 39 -20 0
-17 -7 -20 -46 -20 -89 0 -114 38 -114 175 l0 85 -30 0 c-23 0 -30 4 -30 20 0
18 7 20 55 20 l55 0 0 -108z m401 98 c25 -14 27 -56 2 -44 -10 4 -42 8 -72 9
-41 0 -56 -4 -65 -17 -18 -29 5 -52 65 -66 65 -16 99 -45 99 -84 0 -62 -46
-98 -124 -98 -62 0 -96 15 -96 41 0 17 4 20 23 15 59 -19 107 -19 127 -1 23
21 26 48 7 63 -7 6 -35 16 -62 22 -63 14 -95 43 -95 85 0 57 38 84 118 85 29
0 62 -5 73 -10z m343 -15 c31 -29 46 -64 46 -111 l0 -34 -110 0 c-60 0 -110
-2 -110 -5 0 -3 7 -21 15 -40 22 -54 89 -70 160 -41 34 15 35 14 35 -9 0 -28
-41 -45 -109 -45 -92 0 -146 57 -146 155 1 102 48 154 141 155 41 0 57 -5 78
-25z m858 -96 c3 -106 5 -122 22 -135 27 -19 59 -18 87 5 22 18 24 27 27 135
3 106 5 116 23 116 18 0 19 -9 19 -150 0 -143 -1 -150 -20 -150 -14 0 -20 7
-20 22 l0 21 -24 -22 c-13 -12 -39 -24 -59 -28 -31 -5 -40 -1 -67 25 l-30 30
0 126 c0 118 1 126 19 126 18 0 20 -10 23 -121z m334 97 l6 -24 23 24 c16 16
36 24 59 24 81 0 96 -28 96 -185 0 -108 -1 -115 -20 -115 -19 0 -20 7 -20 103
0 112 -12 150 -49 155 -72 11 -91 -22 -91 -158 0 -100 0 -100 -25 -100 l-25 0
0 150 c0 143 1 150 20 150 12 0 22 -9 26 -24z m495 14 c10 -6 19 -19 19 -29 0
-17 -3 -18 -38 -6 -76 27 -132 -10 -140 -93 -5 -54 15 -104 47 -122 26 -13 87
-13 112 1 18 9 20 8 17 -13 -7 -48 -121 -50 -176 -3 -35 29 -56 101 -47 157 7
42 46 95 79 108 30 12 104 12 127 0z m609 -108 c0 -78 4 -122 12 -130 7 -7 29
-12 50 -12 31 0 38 -4 38 -20 0 -31 -79 -28 -117 4 -27 23 -28 28 -31 130 l-4
106 -34 0 c-27 0 -34 4 -34 20 0 18 7 20 60 20 l60 0 0 -118z m379 103 c75
-38 83 -206 13 -268 -29 -26 -90 -32 -135 -13 -48 19 -67 63 -67 148 0 70 24
122 63 138 34 14 95 12 126 -5z m201 -11 l0 -26 31 27 c43 36 103 32 133 -8
18 -24 22 -46 25 -148 l3 -119 -26 0 -26 0 0 114 c0 129 -8 146 -64 146 -58 0
-70 -26 -74 -151 -4 -99 -6 -109 -23 -109 -18 0 -19 10 -19 150 0 143 1 150
20 150 15 0 20 -7 20 -26z m710 0 l0 -27 26 27 c21 20 37 26 70 26 58 0 74 -8
74 -36 0 -28 -1 -28 -34 -13 -40 19 -94 3 -116 -34 -16 -26 -20 -50 -20 -124
0 -92 0 -93 -25 -93 l-25 0 0 150 0 150 25 0 c20 0 25 -5 25 -26z m449 11 c31
-16 61 -77 61 -125 l0 -30 -111 0 -111 0 6 -27 c16 -65 80 -88 165 -58 41 14
41 14 41 -9 0 -29 -40 -46 -107 -46 -61 0 -106 23 -131 69 -42 74 -18 191 46
225 35 20 105 20 141 1z m339 9 c15 -4 22 -14 22 -30 0 -21 -3 -23 -26 -14
-14 6 -45 10 -70 10 -38 0 -46 -4 -56 -25 -16 -35 2 -51 69 -65 69 -15 93 -38
93 -88 0 -53 -34 -83 -97 -89 -73 -7 -117 7 -121 40 l-3 27 35 -15 c68 -29
136 -14 136 29 0 31 -13 40 -82 60 -90 26 -114 82 -59 137 25 25 37 29 83 29
29 0 63 -3 76 -6z m347 -27 c60 -60 60 -184 0 -244 -28 -28 -40 -33 -80 -33
-89 0 -135 53 -135 156 0 62 21 117 54 139 12 9 43 15 74 15 48 0 58 -4 87
-33z m539 -89 c23 -65 44 -118 48 -118 3 0 16 30 29 68 52 158 59 172 86 172
16 0 23 -5 21 -12 -3 -7 -27 -75 -54 -150 l-49 -138 -32 0 c-17 0 -34 4 -37 9
-3 5 -28 73 -56 151 l-50 141 27 -3 c24 -3 30 -13 67 -120z m464 106 c32 -22
52 -66 52 -114 l0 -40 -105 0 c-102 0 -105 -1 -105 -22 1 -65 85 -97 166 -63
l35 15 -3 -27 c-3 -31 -26 -40 -103 -42 -33 -1 -61 6 -82 19 -83 50 -92 193
-16 260 28 25 42 30 86 30 31 0 62 -6 75 -16z m892 -10 l0 -26 31 27 c27 22
40 25 83 23 47 -3 51 -5 54 -31 3 -25 2 -26 -23 -17 -45 17 -75 12 -106 -19
-28 -29 -29 -32 -29 -130 l0 -101 -25 0 -25 0 0 150 c0 143 1 150 20 150 15 0
20 -7 20 -26z m458 10 c32 -22 52 -66 52 -114 l0 -40 -105 0 c-102 0 -105 -1
-105 -22 1 -65 85 -97 166 -63 l35 15 -3 -27 c-3 -31 -26 -40 -103 -42 -33 -1
-61 6 -82 19 -83 50 -92 193 -16 260 28 25 42 30 86 30 31 0 62 -6 75 -16z
m322 -136 c0 -161 -9 -221 -34 -246 -9 -9 -40 -17 -76 -20 -56 -4 -60 -3 -60
17 0 18 6 21 38 21 73 0 77 8 80 184 l3 156 -45 0 c-39 0 -46 3 -46 20 0 18 7
20 70 20 l70 0 0 -152z m349 137 c31 -16 61 -77 61 -125 l0 -30 -111 0 -111 0
6 -27 c16 -65 80 -88 165 -58 41 14 41 14 41 -9 0 -29 -40 -46 -107 -46 -61 0
-106 23 -131 69 -42 74 -18 191 46 225 35 20 105 20 141 1z m352 5 c11 -6 19
-21 19 -36 0 -24 -1 -24 -22 -10 -12 9 -41 16 -64 16 -35 0 -47 -5 -68 -31
-21 -25 -26 -41 -26 -86 0 -47 4 -59 29 -84 33 -33 78 -38 124 -15 26 14 27
14 27 -10 0 -29 -31 -44 -91 -44 -89 0 -139 56 -139 156 0 68 25 118 70 141
30 15 114 17 141 3z m-12091 -55 l0 -25 -145 0 c-134 0 -145 1 -145 18 0 10 3
22 7 25 3 4 69 7 145 7 l138 0 0 -25z m0 -110 l0 -25 -145 0 c-134 0 -145 1
-145 18 0 10 3 22 7 25 3 4 69 7 145 7 l138 0 0 -25z m10008 -47 c11 -14 15
-38 13 -80 -1 -33 -56 -98 -82 -98 -26 0 -24 11 10 42 36 35 47 68 20 68 -26
0 -43 34 -29 60 12 22 52 27 68 8z m-12838 -586 c0 -196 5 -212 71 -212 32 0
39 -3 39 -20 0 -17 -7 -20 -46 -20 -98 0 -114 33 -114 235 l0 145 -40 0 c-33
0 -40 3 -40 20 0 18 7 20 65 20 l65 0 0 -168z m1020 128 c-64 -126 -65 -278
-2 -407 l20 -43 -22 0 c-15 0 -29 12 -43 38 -66 120 -71 255 -13 380 27 60 37
72 57 72 l23 0 -20 -40z m1340 -134 c0 -198 3 -206 71 -206 33 0 39 -3 39 -21
0 -20 -4 -21 -57 -17 -89 8 -93 16 -93 214 l0 163 -42 3 c-31 2 -44 8 -46 21
-3 15 5 17 62 17 l66 0 0 -174z m4079 111 c59 -123 59 -241 2 -363 -23 -50
-35 -64 -52 -64 -16 0 -19 4 -13 18 43 98 56 160 52 247 -3 75 -9 101 -35 158
l-32 67 24 0 c20 0 29 -12 54 -63z m-5129 -32 c0 -68 -2 -75 -20 -75 -18 0
-20 7 -20 75 0 68 2 75 20 75 18 0 20 -7 20 -75z m100 0 c0 -68 -2 -75 -20
-75 -18 0 -20 7 -20 75 0 68 2 75 20 75 18 0 20 -7 20 -75z m380 55 c0 -17 -7
-20 -45 -20 l-45 0 0 -160 0 -160 45 0 c38 0 45 -3 45 -20 0 -19 -7 -20 -110
-20 -103 0 -110 1 -110 20 0 17 7 20 40 20 l40 0 0 160 0 160 -40 0 c-33 0
-40 3 -40 20 0 19 7 20 110 20 103 0 110 -1 110 -20z m2184 -53 c66 -122 58
-121 111 -22 47 86 60 100 89 93 12 -2 0 -30 -49 -113 l-65 -110 0 -87 c0 -87
0 -88 -25 -88 -25 0 -25 1 -25 90 0 96 1 95 -112 278 l-20 32 29 0 c25 0 33
-9 67 -73z m1442 -39 c-7 -128 -13 -158 -31 -158 -15 0 -23 45 -32 173 l-6 97
38 0 38 0 -7 -112z m344 65 c0 -85 -22 -223 -35 -223 -17 0 -24 35 -31 163
l-7 107 37 0 36 0 0 -47z m270 -28 c0 -68 -2 -75 -20 -75 -18 0 -20 7 -20 75
0 68 2 75 20 75 18 0 20 -7 20 -75z m100 0 c0 -68 -2 -75 -20 -75 -18 0 -20 7
-20 75 0 68 2 75 20 75 18 0 20 -7 20 -75z m-7530 -51 l0 -26 31 27 c27 22 40
25 83 23 47 -3 51 -5 54 -31 3 -25 2 -26 -23 -17 -45 17 -75 12 -106 -19 -28
-29 -29 -32 -29 -130 l0 -101 -25 0 -25 0 0 150 c0 143 1 150 20 150 15 0 20
-7 20 -26z m458 10 c32 -22 52 -66 52 -114 l0 -40 -105 0 c-102 0 -105 -1
-105 -22 1 -65 85 -97 165 -64 34 15 35 14 35 -9 0 -28 -41 -45 -109 -45 -104
0 -164 87 -140 202 15 70 62 108 132 108 31 0 62 -6 75 -16z m336 10 c9 -3 16
-17 16 -30 0 -21 -3 -23 -19 -14 -27 14 -104 13 -119 -2 -7 -7 -12 -22 -12
-35 0 -18 8 -25 43 -34 23 -6 53 -14 66 -18 69 -20 80 -114 18 -151 -59 -36
-177 -22 -177 21 0 17 4 20 23 15 12 -4 40 -10 62 -13 77 -10 116 60 47 85
-15 5 -46 15 -69 21 -24 7 -47 20 -53 31 -18 33 -12 79 15 105 20 21 34 25 84
25 33 0 66 -3 75 -6z m334 -10 c35 -24 52 -68 52 -134 0 -108 -41 -160 -125
-160 -98 0 -153 93 -125 210 17 70 54 100 124 100 30 0 61 -6 74 -16z m540
-66 c16 -46 35 -102 42 -126 7 -23 16 -40 19 -37 3 4 24 59 46 123 38 107 44
117 68 120 l27 3 -44 -123 c-69 -192 -61 -178 -98 -178 l-33 0 -49 138 c-27
75 -51 143 -54 150 -2 7 5 12 21 12 22 0 28 -9 55 -82z m471 67 c31 -16 61
-77 61 -125 l0 -30 -111 0 -111 0 6 -27 c15 -65 84 -89 169 -59 36 13 37 13
37 -9 0 -28 -41 -45 -107 -45 -65 0 -108 24 -133 74 -38 79 -15 187 48 220 35
20 105 20 141 1z m2029 -10 c53 -44 65 -152 26 -227 -32 -61 -137 -76 -190
-27 -64 60 -55 226 15 264 44 24 115 19 149 -10z m172 16 c0 -21 83 -242 88
-236 4 3 25 59 47 123 34 97 45 118 63 120 26 4 27 -3 9 -49 -8 -19 -31 -82
-52 -141 -37 -107 -38 -108 -69 -108 l-32 0 -48 138 c-27 75 -51 143 -53 150
-3 7 4 12 21 12 14 0 26 -4 26 -9z m510 -18 c19 -17 35 -44 40 -68 18 -78 23
-75 -100 -75 -105 0 -110 -1 -110 -21 0 -11 14 -34 30 -51 28 -28 35 -30 83
-26 29 3 60 9 70 13 13 5 17 2 17 -13 0 -40 -108 -56 -169 -24 -48 24 -70 59
-77 119 -5 40 -2 60 14 95 27 54 64 77 124 78 38 0 54 -6 78 -27z m989 12 c37
-19 61 -71 61 -133 0 -122 -69 -183 -171 -153 -57 17 -79 57 -79 146 0 77 22
128 63 145 34 14 95 12 126 -5z m203 -99 c2 -95 6 -117 22 -135 25 -28 61 -27
91 4 24 23 25 31 25 135 l0 110 25 0 25 0 0 -150 c0 -142 -1 -150 -19 -150
-11 0 -23 9 -26 21 -7 21 -7 21 -32 -2 -33 -32 -94 -32 -125 -1 -21 21 -23 33
-26 152 -3 124 -3 130 16 130 19 0 21 -8 24 -114z m2123 88 c34 -35 -6 -91
-52 -73 -16 6 -23 17 -23 37 0 49 42 69 75 36z m16 -231 c15 -48 -11 -117 -55
-144 -55 -34 -65 -15 -16 31 31 29 40 70 16 70 -38 0 -46 74 -8 82 33 7 51 -4
63 -39z m-1361 7 c14 -27 4 -57 -20 -65 -36 -11 -63 25 -49 63 11 29 54 30 69
2z m324 14 c20 -8 21 -57 1 -74 -34 -28 -77 18 -55 60 11 21 26 25 54 14z
m-7766 -407 c10 -11 18 -43 21 -98 7 -89 20 -109 73 -109 21 0 28 -5 28 -19 0
-14 -10 -20 -39 -25 -22 -3 -43 -12 -48 -19 -4 -6 -10 -49 -14 -95 -6 -97 -17
-112 -83 -119 -42 -5 -46 -4 -46 16 0 16 6 21 29 21 16 0 33 6 39 13 5 6 12
50 14 95 2 67 7 87 21 97 18 13 18 14 -2 34 -17 17 -21 33 -21 94 0 80 -9 97
-52 97 -22 0 -28 5 -28 21 0 20 4 21 46 16 25 -2 53 -12 62 -20z m356 -39 c51
-89 69 -205 45 -293 -6 -22 -22 -66 -36 -97 -21 -47 -30 -58 -49 -58 l-23 0
23 53 c64 143 59 243 -21 425 -3 7 3 12 16 12 13 0 28 -14 45 -42z m339 -109
c28 -40 -11 -92 -52 -69 -29 15 -36 48 -15 71 22 25 49 24 67 -2z m5 -201 c7
-7 12 -33 12 -59 0 -50 -28 -97 -72 -120 -37 -20 -38 9 -1 46 39 39 41 57 11
70 -24 10 -34 36 -24 61 7 17 57 19 74 2z m-598 -578 c0 -203 -1 -210 -20
-210 -12 0 -20 7 -20 17 0 15 -1 15 -19 -1 -46 -42 -136 -25 -164 32 -38 74
-25 185 25 227 35 29 107 35 128 10 23 -28 30 -15 30 60 0 68 2 75 20 75 19 0
20 -7 20 -210z m4280 42 c0 -196 5 -212 71 -212 32 0 39 -3 39 -20 0 -17 -7
-20 -46 -20 -98 0 -114 33 -114 235 l0 145 -40 0 c-33 0 -40 3 -40 20 0 18 7
20 65 20 l65 0 0 -168z m3140 -42 c0 -188 -2 -210 -16 -210 -9 0 -23 8 -30 18
-7 9 -14 12 -14 6 0 -19 -57 -37 -93 -30 -41 8 -64 31 -83 83 -25 72 -11 158
33 199 32 29 106 33 135 7 17 -15 18 -13 18 60 0 75 1 77 25 77 l25 0 0 -210z
m240 170 c-64 -126 -65 -278 -2 -407 l20 -43 -22 0 c-15 0 -29 12 -43 38 -66
120 -71 255 -13 380 27 60 37 72 57 72 l23 0 -20 -40z m770 -170 c0 -203 -1
-210 -20 -210 -11 0 -20 7 -20 15 0 8 -4 15 -10 15 -5 0 -10 -4 -10 -9 0 -15
-65 -33 -93 -26 -14 4 -38 20 -53 36 -24 26 -29 39 -32 100 -5 78 8 120 46
149 33 26 92 26 126 -1 l26 -20 0 80 c0 74 2 81 20 81 19 0 20 -7 20 -210z
m1604 168 c51 -89 69 -205 45 -293 -6 -22 -22 -66 -36 -97 -21 -47 -30 -58
-49 -58 l-23 0 23 53 c64 143 59 243 -21 425 -3 7 3 12 16 12 13 0 28 -14 45
-42z m666 12 c0 -25 -4 -30 -25 -30 -21 0 -25 5 -25 30 0 25 4 30 25 30 21 0
25 -5 25 -30z m5055 0 c0 -18 -6 -26 -22 -28 -20 -3 -23 1 -23 28 0 27 3 31
23 28 16 -2 22 -10 22 -28z m3035 0 c0 -25 -4 -30 -25 -30 -21 0 -25 5 -25 30
0 25 4 30 25 30 21 0 25 -5 25 -30z m-16484 -90 c47 0 54 -2 54 -20 0 -18 -7
-20 -55 -20 l-55 0 0 -98 c0 -63 4 -102 12 -110 7 -7 31 -12 55 -12 37 0 43
-3 43 -21 0 -20 -4 -21 -61 -17 -90 6 -99 21 -99 154 l0 104 -40 0 c-33 0 -40
3 -40 20 0 17 7 20 40 20 l40 0 0 40 c0 33 4 42 23 49 21 8 22 6 25 -40 l3
-49 55 0z m1294 44 l0 -44 55 0 c48 0 55 -2 55 -20 0 -18 -7 -20 -55 -20 l-55
0 0 -98 c0 -63 4 -102 12 -110 7 -7 31 -12 55 -12 36 0 43 -3 43 -20 0 -18 -7
-20 -54 -20 -39 0 -60 6 -80 21 -25 20 -26 24 -26 130 l0 109 -45 0 c-38 0
-45 3 -45 20 0 17 7 20 45 20 l45 0 0 40 c0 27 5 42 17 49 26 14 33 5 33 -45z
m460 31 c0 -25 0 -25 -95 -25 l-95 0 0 -55 0 -55 90 0 c89 0 90 0 90 -25 0
-25 -1 -25 -90 -25 l-90 0 0 -75 0 -75 101 0 c98 0 100 0 97 -22 -3 -22 -7
-23 -125 -26 l-123 -3 0 206 0 205 120 0 120 0 0 -25z m1900 -31 l0 -44 55 0
c48 0 55 -2 55 -20 0 -18 -7 -20 -55 -20 l-55 0 0 -98 c0 -63 4 -102 12 -110
7 -7 31 -12 55 -12 36 0 43 -3 43 -20 0 -18 -7 -20 -54 -20 -39 0 -60 6 -80
21 -25 20 -26 24 -26 130 l0 109 -45 0 c-38 0 -45 3 -45 20 0 17 7 20 45 20
l45 0 0 40 c0 27 5 42 17 49 26 14 33 5 33 -45z m405 41 c36 -18 55 -51 55
-95 0 -30 -30 -70 -52 -70 -7 0 1 -9 19 -20 56 -34 63 -130 12 -176 -17 -16
-40 -20 -125 -22 l-104 -4 0 201 0 201 81 0 c52 0 92 -5 114 -15z m715 -10 c0
-22 -4 -25 -40 -25 l-40 0 0 -155 0 -155 40 0 c36 0 40 -2 40 -25 l0 -25 -110
0 -110 0 0 25 c0 23 4 25 40 25 l40 0 0 155 0 155 -40 0 c-36 0 -40 3 -40 25
l0 25 110 0 110 0 0 -25z m870 -50 c0 -68 -2 -75 -20 -75 -18 0 -20 7 -20 75
0 68 2 75 20 75 18 0 20 -7 20 -75z m100 0 c0 -68 -2 -75 -20 -75 -18 0 -20 7
-20 75 0 68 2 75 20 75 18 0 20 -7 20 -75z m1580 0 c0 -68 -2 -75 -20 -75 -18
0 -20 7 -20 75 0 68 2 75 20 75 18 0 20 -7 20 -75z m110 0 c0 -68 -2 -75 -20
-75 -18 0 -20 7 -20 75 0 68 2 75 20 75 18 0 20 -7 20 -75z m2550 -5 l0 -80
75 0 75 0 0 80 c0 79 0 80 25 80 l25 0 0 -200 0 -200 -25 0 c-25 0 -25 0 -25
95 l0 95 -75 0 -75 0 0 -95 0 -95 -30 0 -30 0 0 200 0 200 30 0 30 0 0 -80z
m568 58 c-3 -21 -9 -23 -65 -26 l-63 -3 0 -180 0 -180 -27 3 -28 3 -3 178 -2
177 -60 0 c-57 0 -60 1 -60 25 l0 25 156 0 155 0 -3 -22z m143 -78 c18 -54 35
-97 39 -94 3 3 19 47 36 97 l31 92 36 3 37 3 0 -200 0 -201 -25 0 -25 0 -1
168 0 167 -36 -98 c-48 -131 -62 -130 -112 8 l-36 100 -3 -172 -2 -173 -25 0
-25 0 0 200 0 200 39 0 40 0 32 -100z m319 -80 l0 -180 100 0 100 0 0 -25 0
-25 -125 0 -125 0 0 205 0 205 25 0 25 0 0 -180z m4175 166 c38 -16 65 -60 65
-106 0 -76 -55 -120 -150 -120 l-50 0 0 -80 0 -80 -30 0 -30 0 0 200 0 200 80
0 c47 0 95 -6 115 -14z m-1425 -41 l0 -45 55 0 c48 0 55 -2 55 -20 0 -18 -7
-20 -55 -20 l-55 0 0 -91 c0 -115 7 -129 65 -129 39 0 45 -3 45 -21 0 -20 -4
-21 -56 -16 -87 9 -94 20 -94 149 l0 108 -45 0 c-38 0 -45 3 -45 20 0 17 7 20
45 20 l45 0 0 38 c0 41 6 52 27 52 9 0 13 -14 13 -45z m-15772 -61 c35 -24 52
-68 52 -134 0 -108 -41 -160 -125 -160 -98 0 -153 93 -125 210 17 70 54 100
124 100 30 0 61 -6 74 -16z m350 10 c15 -5 22 -14 22 -31 0 -20 -3 -24 -17
-17 -10 4 -36 9 -59 12 -32 3 -47 -1 -69 -20 -52 -46 -43 -167 16 -199 22 -11
80 -8 112 5 25 12 23 -30 -2 -44 -31 -16 -103 -12 -140 8 -91 49 -97 218 -9
272 33 20 99 26 146 14z m182 -93 c0 -110 9 -144 40 -161 32 -17 76 4 89 42 6
17 11 73 11 124 0 94 0 94 25 94 l25 0 0 -150 0 -150 -25 0 c-19 0 -25 5 -25
22 l0 22 -20 -21 c-25 -28 -54 -36 -96 -28 -56 10 -68 39 -72 181 l-4 124 26
0 26 0 0 -99z m310 87 c0 -9 3 -9 12 0 17 17 73 15 88 -3 11 -13 14 -13 27 0
8 8 30 15 48 15 50 0 58 -24 63 -172 l4 -128 -26 0 -25 0 -3 128 c-3 125 -3
127 -27 130 -13 2 -28 -2 -32 -10 -5 -7 -9 -66 -9 -130 l0 -118 -25 0 -24 0
-3 128 c-3 123 -4 127 -25 130 -33 5 -43 -31 -43 -154 0 -97 -1 -104 -20 -104
-19 0 -20 7 -20 150 0 143 1 150 20 150 11 0 20 -5 20 -12z m509 -3 c31 -16
61 -77 61 -125 l0 -30 -111 0 -111 0 6 -27 c15 -65 84 -89 169 -59 36 13 37
13 37 -9 0 -28 -41 -45 -107 -45 -65 0 -108 24 -133 74 -38 79 -15 187 48 220
35 20 105 20 141 1z m191 -6 l0 -20 26 20 c29 23 92 28 124 11 29 -15 40 -65
40 -181 l0 -109 -25 0 -25 0 0 108 c0 123 -11 152 -61 152 -57 0 -69 -27 -69
-150 l0 -110 -25 0 -25 0 0 150 c0 143 1 150 20 150 14 0 20 -7 20 -21z m1140
1 l20 -20 0 20 c0 15 7 20 25 20 l25 0 0 -148 c0 -81 -4 -162 -10 -181 -20
-72 -75 -100 -165 -87 -40 6 -45 10 -45 33 0 20 4 24 18 18 9 -4 35 -9 57 -12
55 -7 84 18 92 77 l6 44 -28 -22 c-52 -41 -129 -21 -159 42 -9 19 -16 59 -16
91 0 95 40 145 117 145 30 0 49 -6 63 -20z m358 4 c32 -22 52 -66 52 -114 l0
-40 -105 0 c-102 0 -105 -1 -105 -22 1 -65 85 -97 166 -63 l35 15 -3 -27 c-3
-31 -26 -40 -103 -42 -33 -1 -61 6 -82 19 -83 50 -92 193 -16 260 28 25 42 30
86 30 31 0 62 -6 75 -16z m1350 0 c32 -22 52 -66 52 -114 l0 -40 -105 0 c-102
0 -105 -1 -105 -22 1 -65 85 -97 166 -63 l35 15 -3 -27 c-3 -31 -26 -40 -103
-42 -33 -1 -61 6 -82 19 -83 50 -92 193 -16 260 28 25 42 30 86 30 31 0 62 -6
75 -16z m162 4 c0 -9 3 -9 12 0 17 17 73 15 88 -3 11 -13 14 -13 27 1 10 9 29
14 52 12 31 -3 38 -8 48 -38 7 -19 12 -86 12 -147 l1 -113 -25 0 -24 0 -3 128
c-3 125 -3 127 -27 130 -13 2 -28 -2 -32 -10 -5 -7 -9 -66 -9 -130 l0 -118
-25 0 -24 0 -3 128 c-3 123 -4 127 -25 130 -33 5 -43 -31 -43 -154 0 -97 -1
-104 -20 -104 -19 0 -20 7 -20 150 0 143 1 150 20 150 11 0 20 -5 20 -12z
m509 -3 c31 -16 61 -77 61 -125 l0 -30 -111 0 -111 0 6 -27 c16 -65 80 -88
165 -58 41 14 41 14 41 -9 0 -29 -40 -46 -107 -46 -61 0 -106 23 -131 69 -42
74 -18 191 46 225 35 20 105 20 141 1z m191 -6 l0 -20 26 20 c39 31 103 29
135 -5 22 -24 24 -35 28 -150 l3 -124 -26 0 -26 0 0 103 c0 129 -10 152 -65
152 -57 0 -75 -38 -75 -162 0 -92 0 -93 -25 -93 l-25 0 0 150 0 150 25 0 c19
0 25 -5 25 -21z m1000 12 c0 -5 19 -57 41 -116 27 -69 45 -102 50 -94 4 7 25
60 45 116 35 95 40 103 65 103 l26 0 -67 -173 c-37 -95 -72 -182 -78 -194 -18
-32 -52 -53 -89 -53 -26 0 -33 4 -33 20 0 14 7 20 21 20 33 0 56 17 68 50 9
27 5 44 -30 133 -23 56 -50 123 -60 150 l-19 47 30 0 c17 0 30 -4 30 -9z
m2190 -18 c19 -17 35 -44 40 -68 18 -78 23 -75 -100 -75 -105 0 -110 -1 -110
-21 0 -11 14 -34 30 -51 28 -28 35 -30 83 -26 29 3 60 9 70 13 13 5 17 2 17
-13 0 -40 -108 -56 -169 -24 -48 24 -70 59 -77 119 -5 40 -2 60 14 95 27 54
64 77 124 78 38 0 54 -6 78 -27z m153 15 c4 -10 7 -10 18 0 18 17 64 15 79 -3
11 -13 15 -13 33 0 28 20 71 19 88 -2 10 -11 15 -55 17 -150 4 -130 3 -133
-17 -133 -20 0 -21 5 -21 119 0 97 -3 123 -16 136 -41 41 -64 -11 -64 -147 0
-101 -1 -108 -20 -108 -19 0 -20 7 -20 125 0 107 -2 125 -17 134 -11 6 -24 6
-35 0 -16 -9 -18 -25 -18 -134 0 -118 -1 -125 -20 -125 -19 0 -20 7 -20 150 0
123 3 150 14 150 8 0 16 -6 19 -12z m515 -13 c53 -44 65 -152 26 -227 -32 -61
-137 -76 -190 -27 -64 60 -55 226 15 264 44 24 115 19 149 -10z m1292 -89 c0
-132 7 -146 71 -146 32 0 39 -3 39 -20 0 -17 -7 -20 -49 -20 -38 0 -56 6 -78
24 -27 23 -28 28 -31 130 l-4 106 -34 0 c-27 0 -34 4 -34 20 0 18 7 20 60 20
l60 0 0 -114z m250 92 l0 -21 23 21 c35 33 109 31 136 -4 19 -24 21 -40 21
-150 l0 -124 -25 0 -25 0 0 111 c0 129 -7 149 -54 149 -58 0 -70 -26 -74 -151
-4 -108 -4 -109 -28 -109 l-24 0 0 150 0 150 25 0 c19 0 25 -5 25 -22z m330 1
l0 -20 26 20 c29 23 92 28 124 11 29 -15 40 -65 40 -181 l0 -109 -25 0 -25 0
0 108 c0 123 -11 152 -61 152 -57 0 -69 -27 -69 -150 l0 -110 -25 0 -25 0 0
150 c0 143 1 150 20 150 14 0 20 -7 20 -21z m488 5 c32 -22 52 -66 52 -114 l0
-40 -105 0 c-102 0 -105 -1 -105 -22 1 -65 85 -97 166 -63 l35 15 -3 -27 c-3
-31 -26 -40 -103 -42 -33 -1 -61 6 -82 19 -83 50 -92 193 -16 260 28 25 42 30
86 30 31 0 62 -6 75 -16z m222 -10 l0 -27 26 27 c21 20 37 26 70 26 58 0 74
-8 74 -36 0 -28 -1 -28 -34 -13 -40 19 -94 3 -116 -34 -16 -26 -20 -50 -20
-124 0 -92 0 -93 -25 -93 l-25 0 0 150 0 150 25 0 c20 0 25 -5 25 -26z m2826
-8 c18 -21 24 -39 25 -79 0 -29 3 -82 8 -119 7 -66 7 -68 -16 -68 -16 0 -23 6
-23 20 0 26 -8 25 -38 -2 -18 -18 -36 -23 -74 -23 -42 0 -53 4 -74 28 -33 38
-33 95 0 126 26 25 80 40 139 41 29 0 37 4 37 18 0 21 -25 47 -55 56 -12 3
-44 0 -73 -8 -49 -12 -52 -12 -52 6 0 27 36 38 109 35 55 -3 67 -7 87 -31z
m144 -63 c35 -161 34 -159 60 -70 18 58 27 77 41 77 18 0 26 -18 49 -110 15
-56 20 -46 50 93 21 96 25 107 45 107 l22 0 -36 -150 c-32 -137 -37 -150 -57
-150 -19 0 -25 11 -43 69 -12 38 -21 75 -21 82 0 29 -19 -10 -37 -76 -17 -60
-23 -70 -44 -73 -23 -3 -25 2 -57 140 -18 79 -32 146 -32 151 0 4 9 7 19 7 16
0 23 -16 41 -97z m519 71 c34 -28 39 -47 44 -181 3 -86 2 -93 -16 -93 -10 0
-21 9 -24 20 -5 19 -6 19 -37 -3 -22 -15 -45 -22 -79 -22 -41 0 -53 5 -73 28
-34 40 -32 90 4 127 24 24 40 30 100 36 49 4 72 11 72 19 0 51 -51 71 -128 51
-52 -13 -53 -13 -50 7 4 25 32 35 105 36 42 1 57 -4 82 -25z m281 -92 c0 -78
4 -122 12 -130 7 -7 29 -12 50 -12 31 0 38 -4 38 -20 0 -31 -79 -28 -117 4
-27 23 -28 28 -31 130 l-4 106 -34 0 c-27 0 -34 4 -34 20 0 18 7 20 60 20 l60
0 0 -118z m893 106 c4 -10 7 -10 18 0 18 17 64 15 79 -3 12 -14 15 -14 30 0
22 20 74 19 91 -2 10 -11 15 -55 17 -150 l4 -133 -26 0 -25 0 -3 128 c-3 123
-4 127 -25 130 -33 5 -43 -31 -43 -154 0 -97 -1 -104 -20 -104 -19 0 -20 7
-20 113 0 121 -10 152 -46 145 -17 -3 -19 -14 -22 -131 l-3 -127 -24 0 -25 0
0 150 c0 141 1 150 19 150 11 0 21 -6 24 -12z m386 -94 c23 -58 41 -110 41
-115 0 -32 20 6 56 104 38 103 44 112 69 115 20 3 26 0 23 -10 -3 -7 -33 -84
-67 -171 -89 -229 -94 -237 -160 -237 -24 0 -31 4 -31 20 0 15 7 20 24 20 29
0 66 42 66 74 0 12 -25 83 -55 159 -30 75 -55 139 -55 142 0 3 11 5 24 5 21 0
29 -12 65 -106z m681 80 l0 -26 31 27 c27 22 40 25 83 23 47 -3 51 -5 54 -31
3 -25 2 -26 -23 -17 -45 17 -75 12 -106 -19 -28 -29 -29 -32 -29 -130 l0 -101
-25 0 -25 0 0 150 c0 143 1 150 20 150 15 0 20 -7 20 -26z m458 1 c52 -43 64
-152 26 -227 -41 -80 -185 -75 -220 7 -18 45 -18 148 1 185 23 44 53 60 111
60 41 0 59 -5 82 -25z m162 13 c0 -9 3 -9 12 0 7 7 26 12 43 12 17 0 36 -5 43
-12 9 -9 15 -9 24 0 7 7 27 12 44 12 55 0 64 -25 64 -172 0 -121 -1 -128 -20
-128 -19 0 -20 7 -20 114 0 131 -4 146 -35 146 -31 0 -35 -15 -35 -146 l0
-114 -25 0 -24 0 -3 128 c-3 125 -3 127 -27 130 -13 2 -28 -2 -32 -10 -5 -7
-9 -66 -9 -130 0 -111 -1 -118 -20 -118 -19 0 -20 7 -20 150 0 143 1 150 20
150 11 0 20 -5 20 -12z m450 -96 c0 -130 10 -152 71 -152 32 0 39 -3 39 -20 0
-17 -7 -20 -46 -20 -89 0 -114 38 -114 175 l0 85 -30 0 c-23 0 -30 4 -30 20 0
18 7 20 55 20 l55 0 0 -108z m401 98 c25 -14 27 -56 2 -44 -10 4 -42 8 -72 9
-41 0 -56 -4 -65 -17 -18 -29 5 -52 65 -66 65 -16 99 -45 99 -84 0 -62 -46
-98 -124 -98 -62 0 -96 15 -96 41 0 17 4 20 23 15 59 -19 107 -19 127 -1 23
21 26 48 7 63 -7 6 -35 16 -62 22 -63 14 -95 43 -95 85 0 57 38 84 118 85 29
0 62 -5 73 -10z m343 -15 c31 -29 46 -64 46 -111 l0 -34 -110 0 c-60 0 -110
-2 -110 -5 0 -3 7 -21 15 -40 22 -54 89 -70 160 -41 34 15 35 14 35 -9 0 -28
-41 -45 -109 -45 -92 0 -146 57 -146 155 1 102 48 154 141 155 41 0 57 -5 78
-25z m281 -1 c34 -35 -6 -91 -52 -73 -16 6 -23 17 -23 37 0 49 42 69 75 36z
m-5617 -41 c3 -23 3 -23 -142 -23 l-146 0 0 25 0 26 143 -3 c139 -3 142 -4
145 -25z m0 -110 c3 -23 3 -23 -142 -23 l-146 0 0 25 0 26 143 -3 c139 -3 142
-4 145 -25z m5633 -80 c15 -48 -11 -117 -55 -144 -55 -34 -65 -15 -16 31 31
29 40 70 16 70 -38 0 -46 74 -8 82 33 7 51 -4 63 -39z m-17211 22 c15 -19 6
-61 -16 -69 -42 -16 -75 24 -54 64 13 24 52 27 70 5z m7750 1 c28 -35 -11 -93
-47 -70 -36 22 -23 84 17 84 10 0 23 -7 30 -14z m-11142 -409 c10 -11 17 -42
20 -97 5 -89 19 -110 74 -110 21 0 28 -5 28 -20 0 -15 -7 -20 -28 -20 -56 0
-69 -21 -74 -115 -5 -100 -15 -115 -82 -122 -42 -5 -46 -4 -46 16 0 17 6 21
30 21 39 0 50 23 50 109 0 59 4 75 21 92 l21 21 -21 14 c-18 13 -21 25 -21 85
0 86 -11 109 -50 109 -24 0 -30 4 -30 21 0 20 4 21 46 16 25 -2 53 -12 62 -20z
m1017 -1507 c0 -20 -6 -26 -27 -28 -25 -3 -28 0 -28 28 0 28 3 31 28 28 21 -2
27 -8 27 -28z m1005 -141 c0 -98 4 -178 10 -190 8 -14 21 -19 55 -19 38 0 45
-3 45 -20 0 -18 -7 -20 -52 -20 -97 1 -108 23 -108 224 l0 156 -40 0 c-33 0
-40 3 -40 20 0 18 7 20 65 20 l65 0 0 -171z m1028 164 c-39 -76 -68 -177 -68
-238 0 -54 25 -157 50 -205 l20 -40 -23 0 c-36 0 -87 115 -94 213 -9 115 49
277 98 277 11 0 19 -3 17 -7z m336 -35 c51 -89 69 -205 45 -293 -6 -22 -22
-66 -36 -97 -21 -47 -30 -58 -49 -58 l-23 0 23 53 c64 143 59 243 -21 425 -3
7 3 12 16 12 13 0 28 -14 45 -42z m-2684 0 c66 -34 85 -74 85 -178 0 -149 -47
-200 -182 -200 l-73 0 0 200 0 200 63 0 c45 0 75 -6 107 -22z m-810 -90 c0 -9
3 -9 12 0 16 16 70 16 86 0 9 -9 15 -9 24 0 7 7 27 12 44 12 55 0 64 -25 64
-172 0 -121 -1 -128 -20 -128 -19 0 -20 7 -20 114 0 131 -4 146 -35 146 -31 0
-35 -15 -35 -146 l0 -114 -25 0 -24 0 -3 128 c-3 125 -3 127 -27 130 -13 2
-28 -2 -32 -10 -5 -7 -9 -66 -9 -130 0 -111 -1 -118 -20 -118 -19 0 -20 7 -20
150 0 143 1 150 20 150 11 0 20 -5 20 -12z m384 -100 c23 -58 44 -109 47 -112
3 -4 25 46 49 109 38 103 45 115 66 115 13 0 24 -3 24 -7 0 -4 -32 -88 -70
-187 -77 -197 -97 -226 -156 -226 -27 0 -34 4 -34 20 0 14 7 20 23 20 30 0 41
9 60 46 16 31 15 34 -43 180 -33 81 -60 150 -60 152 0 2 12 2 26 0 24 -3 31
-14 68 -110z m746 -6 c0 -78 4 -122 12 -130 7 -7 29 -12 50 -12 31 0 38 -4 38
-20 0 -17 -7 -20 -50 -20 -41 0 -56 5 -75 25 -23 23 -25 31 -25 130 l0 105
-35 0 c-28 0 -35 4 -35 20 0 18 7 20 60 20 l60 0 0 -118z m388 112 c15 -4 22
-14 22 -30 0 -21 -3 -23 -26 -14 -14 6 -45 10 -70 10 -38 0 -46 -4 -56 -25
-16 -35 2 -51 69 -65 69 -15 93 -38 93 -88 0 -53 -34 -83 -97 -89 -73 -7 -117
7 -121 40 l-3 27 35 -15 c68 -29 136 -14 136 29 0 31 -13 40 -82 60 -90 26
-114 82 -59 137 25 25 37 29 83 29 29 0 63 -3 76 -6z m192 -14 l0 -20 20 20
c25 25 96 27 129 4 50 -35 68 -159 35 -230 -29 -62 -107 -83 -158 -43 l-26 20
0 -75 c0 -74 -1 -76 -25 -76 l-25 0 0 210 0 210 25 0 c18 0 25 -5 25 -20z
m830 -8 c24 -25 29 -38 34 -108 4 -43 8 -98 10 -121 3 -39 2 -43 -20 -43 -14
0 -25 8 -29 20 -6 20 -7 20 -37 -5 -80 -68 -203 5 -171 101 15 45 53 66 131
72 65 4 69 6 64 26 -2 11 -12 27 -20 34 -19 14 -90 16 -126 2 -23 -9 -26 -7
-26 15 0 28 12 32 98 34 57 1 66 -2 92 -27z m204 -84 c23 -58 44 -109 47 -112
3 -4 25 46 49 109 38 103 45 115 66 115 13 0 24 -3 24 -7 0 -4 -32 -88 -70
-187 -77 -197 -97 -226 -156 -226 -27 0 -34 4 -34 20 0 14 7 20 23 20 30 0 41
9 60 46 16 31 15 34 -43 180 -33 81 -60 150 -60 152 0 2 12 2 26 0 24 -3 31
-14 68 -110z m1089 81 c28 -40 -11 -92 -52 -69 -29 15 -36 48 -15 71 22 25 49
24 67 -2z m5 -201 c7 -7 12 -33 12 -59 0 -50 -28 -97 -72 -120 -37 -20 -38 9
-1 46 39 39 41 57 11 70 -24 10 -34 36 -24 61 7 17 57 19 74 2z m-3730 -411
c10 -11 17 -42 20 -97 5 -89 19 -110 74 -110 21 0 28 -5 28 -20 0 -15 -7 -20
-28 -20 -56 0 -69 -21 -74 -115 -5 -100 -15 -115 -82 -122 -42 -5 -46 -4 -46
16 0 17 6 21 30 21 39 0 50 23 50 109 0 59 4 75 21 92 l21 21 -21 14 c-18 13
-21 25 -21 85 0 86 -11 109 -50 109 -24 0 -30 4 -30 21 0 20 4 21 46 16 25 -2
53 -12 62 -20z"/>
<path d="M10764 10412 c-23 -15 -34 -52 -34 -112 0 -51 4 -65 25 -85 13 -14
34 -25 45 -25 11 0 32 11 45 25 22 21 25 33 25 93 0 55 -4 73 -20 90 -20 22
-64 29 -86 14z"/>
<path d="M3360 10417 c-38 -19 -51 -54 -47 -124 3 -72 24 -103 69 -103 42 0
64 15 77 51 25 71 3 161 -44 179 -31 12 -25 12 -55 -3z"/>
<path d="M5022 10294 c-34 -23 -28 -85 9 -98 56 -19 101 13 115 82 l7 32 -55
0 c-33 0 -62 -6 -76 -16z"/>
<path d="M6032 10294 c-14 -10 -22 -26 -22 -44 0 -92 132 -72 147 23 l6 37
-54 0 c-33 0 -63 -6 -77 -16z"/>
<path d="M6720 10303 c-64 -23 -45 -113 24 -113 39 0 86 49 86 89 0 30 -1 31
-47 30 -27 0 -55 -3 -63 -6z"/>
<path d="M8735 10395 c-14 -13 -25 -33 -25 -45 0 -18 6 -20 80 -20 66 0 80 3
80 16 0 19 -19 56 -34 66 -24 17 -77 8 -101 -17z"/>
<path d="M9084 10412 c-22 -15 -34 -52 -34 -110 0 -72 25 -112 70 -112 45 0
70 40 70 112 0 84 -20 118 -70 118 -14 0 -30 -4 -36 -8z"/>
<path d="M10423 10398 c-11 -13 -24 -33 -28 -45 -6 -23 -5 -23 80 -23 l85 0
-6 28 c-10 43 -33 62 -74 62 -25 0 -43 -7 -57 -22z"/>
<path d="M11762 10294 c-26 -18 -30 -65 -6 -88 43 -44 128 -1 136 69 l4 35
-56 0 c-34 0 -64 -6 -78 -16z"/>
<path d="M12770 10290 c-56 -56 18 -128 92 -89 20 11 48 65 48 94 0 25 -114
21 -140 -5z"/>
<path d="M13780 10290 c-56 -56 18 -128 92 -89 20 11 48 65 48 94 0 25 -114
21 -140 -5z"/>
<path d="M8710 8840 l0 -160 29 0 c51 0 89 20 105 55 20 42 21 154 2 200 -16
38 -34 50 -93 59 l-43 6 0 -160z"/>
<path d="M2990 8770 c-56 -56 18 -128 92 -89 20 11 48 65 48 94 0 25 -114 21
-140 -5z"/>
<path d="M7070 8897 c-38 -19 -51 -54 -47 -124 3 -72 24 -103 69 -103 42 0 64
15 77 51 25 71 3 161 -44 179 -31 12 -25 12 -55 -3z"/>
<path d="M9755 8880 c-26 -29 -32 -127 -11 -168 19 -36 56 -50 91 -34 46 21
58 140 21 197 -21 32 -75 34 -101 5z"/>
<path d="M10430 8783 c-64 -23 -45 -113 24 -113 39 0 86 49 86 89 0 30 -1 31
-47 30 -27 0 -55 -3 -63 -6z"/>
<path d="M5688 8274 c-12 -12 -9 -142 3 -149 18 -12 100 6 120 26 24 24 25 70
2 98 -19 21 -111 40 -125 25z"/>
<path d="M10410 8200 l0 -83 51 6 c65 8 89 29 89 77 0 48 -24 69 -89 77 l-51
6 0 -83z"/>
<path d="M4045 8181 c-26 -11 -51 -40 -59 -68 -7 -23 -6 -23 78 -23 69 0 86 3
86 15 0 30 -24 64 -53 75 -16 5 -30 10 -31 9 -1 0 -10 -4 -21 -8z"/>
<path d="M6374 8159 c-15 -17 -19 -36 -19 -96 0 -67 3 -77 24 -94 32 -26 67
-24 96 6 21 21 25 33 25 88 0 50 -5 70 -21 91 -26 33 -77 36 -105 5z"/>
<path d="M7727 8162 c-8 -9 -20 -29 -26 -45 l-11 -27 86 0 86 0 -7 28 c-3 15
-14 35 -22 45 -21 23 -85 23 -106 -1z"/>
<path d="M9435 8176 c-27 -12 -55 -50 -55 -76 0 -6 38 -10 86 -10 l86 0 -7 28
c-13 54 -60 80 -110 58z"/>
<path d="M11094 8159 c-15 -17 -19 -36 -19 -96 0 -67 3 -77 24 -94 32 -26 67
-24 96 6 21 21 25 33 25 88 0 50 -5 70 -21 91 -26 33 -77 36 -105 5z"/>
<path d="M12445 8155 c-14 -13 -25 -33 -25 -45 0 -18 6 -20 80 -20 66 0 80 3
80 16 0 19 -19 56 -34 66 -24 17 -77 8 -101 -17z"/>
<path d="M15175 8182 c-31 -7 -44 -21 -56 -65 -14 -52 -4 -118 22 -146 29 -31
82 -28 108 5 24 30 29 125 10 168 -13 27 -52 45 -84 38z"/>
<path d="M16497 8162 c-8 -9 -20 -29 -26 -45 l-11 -27 86 0 86 0 -7 28 c-3 15
-14 35 -22 45 -21 23 -85 23 -106 -1z"/>
<path d="M17165 8156 c-34 -51 -31 -150 6 -187 27 -27 73 -25 97 6 41 51 36
172 -8 195 -34 18 -78 12 -95 -14z"/>
<path d="M18192 8173 c-13 -5 -42 -55 -42 -73 0 -6 31 -10 80 -10 79 0 80 0
80 25 0 49 -63 80 -118 58z"/>
<path d="M19542 8173 c-13 -5 -42 -55 -42 -73 0 -6 31 -10 80 -10 79 0 80 0
80 25 0 49 -63 80 -118 58z"/>
<path d="M20207 8162 c-8 -9 -20 -29 -26 -45 l-11 -27 86 0 86 0 -7 28 c-3 15
-14 35 -22 45 -21 23 -85 23 -106 -1z"/>
<path d="M4702 7413 c-13 -5 -42 -55 -42 -73 0 -6 31 -10 80 -10 79 0 80 0 80
25 0 49 -63 80 -118 58z"/>
<path d="M5361 7394 c-16 -21 -21 -41 -21 -91 0 -55 4 -67 25 -88 43 -44 105
-23 121 40 10 42 -1 123 -21 145 -27 30 -78 26 -104 -6z"/>
<path d="M6377 7402 c-8 -9 -20 -29 -26 -45 l-11 -27 86 0 86 0 -7 28 c-3 15
-14 35 -22 45 -21 23 -85 23 -106 -1z"/>
<path d="M8419 7416 c-37 -18 -50 -54 -46 -123 3 -72 24 -103 69 -103 42 0 64
15 77 51 36 105 -25 213 -100 175z"/>
<path d="M9114 7422 c-25 -4 -59 -38 -69 -69 -6 -23 -5 -23 79 -23 93 0 98 3
75 54 -13 27 -51 44 -85 38z"/>
<path d="M10112 7422 c-37 -6 -57 -48 -57 -118 0 -76 27 -114 81 -114 50 0 74
37 74 115 0 88 -33 127 -98 117z"/>
<path d="M3684 5932 c-23 -15 -34 -52 -34 -112 0 -51 4 -65 25 -85 13 -14 33
-25 45 -25 12 0 32 11 45 25 22 21 25 33 25 93 0 55 -4 73 -20 90 -20 22 -64
29 -86 14z"/>
<path d="M11092 5922 c-43 -43 -34 -167 14 -199 32 -21 73 -9 91 27 21 41 16
133 -8 164 -25 31 -70 35 -97 8z"/>
<path d="M12094 5914 c-26 -39 -24 -135 2 -171 29 -39 72 -42 104 -8 21 22 25
36 25 89 0 84 -21 116 -75 116 -31 0 -43 -5 -56 -26z"/>
<path d="M10070 5975 l0 -68 52 5 c116 12 117 111 1 125 l-53 6 0 -68z"/>
<path d="M10070 5795 l0 -75 55 0 c67 0 95 22 95 74 0 48 -37 76 -101 76 l-49
0 0 -75z"/>
<path d="M21200 5960 l0 -83 51 6 c65 8 89 29 89 77 0 48 -24 69 -89 77 l-51
6 0 -83z"/>
<path d="M4011 5914 c-16 -21 -21 -41 -21 -91 0 -55 4 -67 25 -88 43 -44 105
-23 121 40 10 42 -1 123 -21 145 -27 30 -78 26 -104 -6z"/>
<path d="M5367 5922 c-8 -9 -20 -29 -26 -45 l-11 -27 86 0 86 0 -7 28 c-3 15
-14 35 -22 45 -21 23 -85 23 -106 -1z"/>
<path d="M6715 5920 c-26 -29 -32 -118 -11 -158 19 -36 56 -50 91 -34 45 21
57 132 20 188 -20 31 -74 33 -100 4z"/>
<path d="M7062 5933 c-13 -5 -42 -55 -42 -73 0 -6 31 -10 80 -10 79 0 80 0 80
25 0 49 -63 80 -118 58z"/>
<path d="M8412 5933 c-13 -5 -42 -55 -42 -73 0 -6 31 -10 80 -10 79 0 80 0 80
25 0 49 -63 80 -118 58z"/>
<path d="M9077 5922 c-8 -9 -20 -29 -26 -45 l-11 -27 86 0 86 0 -7 28 c-3 15
-14 35 -22 45 -21 23 -85 23 -106 -1z"/>
<path d="M12484 5942 c-25 -4 -59 -38 -69 -69 -6 -23 -5 -23 79 -23 93 0 98 3
75 54 -13 27 -51 44 -85 38z"/>
<path d="M13139 5936 c-37 -18 -50 -54 -46 -123 3 -72 24 -103 69 -103 42 0
64 15 77 51 36 105 -25 213 -100 175z"/>
<path d="M15492 5933 c-13 -5 -42 -55 -42 -73 0 -6 31 -10 80 -10 79 0 80 0
80 25 0 49 -63 80 -118 58z"/>
<path d="M18500 5810 c-41 -41 -12 -100 49 -100 46 0 79 31 88 84 l6 36 -62 0
c-48 0 -65 -4 -81 -20z"/>
<path d="M19175 5810 c-23 -25 -23 -70 1 -87 22 -16 74 -16 95 0 23 17 39 52
39 81 0 25 -2 26 -58 26 -46 0 -63 -4 -77 -20z"/>
<path d="M21884 5919 c-15 -17 -19 -36 -19 -96 0 -67 3 -77 24 -94 32 -26 67
-24 96 6 21 21 25 33 25 88 0 50 -5 70 -21 91 -26 33 -77 36 -105 5z"/>
<path d="M23235 5915 c-14 -13 -25 -33 -25 -45 0 -18 6 -20 80 -20 66 0 80 3
80 16 0 19 -19 56 -34 66 -24 17 -77 8 -101 -17z"/>
<path d="M3650 3641 l0 -161 35 0 c81 0 115 46 115 154 0 73 -18 129 -47 144
-10 5 -37 13 -60 17 l-43 7 0 -161z"/>
<path d="M4694 3675 c-38 -57 -25 -176 22 -197 33 -15 74 0 92 32 19 36 11
143 -12 169 -27 30 -81 28 -102 -4z"/>
<path d="M5362 3578 c-45 -22 -36 -91 13 -104 57 -14 96 16 109 84 l6 32 -53
-1 c-28 0 -62 -5 -75 -11z"/>
</g>
</svg>
